<svg id="object" xmlns="http://www.w3.org/2000/svg" viewBox="0 0 68.03 94.34"><path d="M739.68,281.86H681.49a1.25,1.25,0,0,1-1.25-1.25V196.32a1.25,1.25,0,0,1,1.25-1.25h58.19a1.25,1.25,0,0,1,1.25,1.25v84.29A1.25,1.25,0,0,1,739.68,281.86Zm-56.94-2.5h55.69V197.57H682.74Z" transform="translate(-680.24 -195.07)"/><path d="M747,289.41H688.84a1.25,1.25,0,0,1-1.25-1.25V281a1.25,1.25,0,0,1,2.5,0v5.92h55.69V205.12H690.09v42.65h20.42V232.24a1.25,1.25,0,0,1,2.5,0V249a1.25,1.25,0,0,1-1.25,1.25H688.84a1.25,1.25,0,0,1-1.25-1.25V203.87a1.25,1.25,0,0,1,1.25-1.25H747a1.25,1.25,0,0,1,1.25,1.25v84.29A1.25,1.25,0,0,1,747,289.41Z" transform="translate(-680.24 -195.07)"/><path d="M711,274.12a1.25,1.25,0,0,1-1.25-1.25V258a1.25,1.25,0,0,1,2.5,0v14.85A1.25,1.25,0,0,1,711,274.12Z" transform="translate(-680.24 -195.07)"/></svg>