<svg id="object" xmlns="http://www.w3.org/2000/svg" viewBox="0 0 68.47 66.77"><path d="M487,434.59a1.25,1.25,0,0,1-1.25-1.25V369.07a1.24,1.24,0,0,1,.73-1.13,1.22,1.22,0,0,1,1.33.18L520,395.53l32.17-27.41a1.25,1.25,0,1,1,1.62,1.9l-33,28.1a1.24,1.24,0,0,1-1.62,0l-30.93-26.34v61.56A1.25,1.25,0,0,1,487,434.59Z" transform="translate(-485.74 -367.82)"/><path d="M553,434.42a1.25,1.25,0,0,1-1.25-1.25V384.64L520.79,411a1.24,1.24,0,0,1-1.62,0l-26.07-22.2a1.25,1.25,0,1,1,1.62-1.9L520,408.39,552.15,381a1.28,1.28,0,0,1,1.34-.18,1.26,1.26,0,0,1,.72,1.14v51.23A1.25,1.25,0,0,1,553,434.42Z" transform="translate(-485.74 -367.82)"/><path d="M553,434.42H520a1.25,1.25,0,0,1,0-2.5h33a1.25,1.25,0,0,1,0,2.5Z" transform="translate(-485.74 -367.82)"/></svg>