<svg id="object" xmlns="http://www.w3.org/2000/svg" viewBox="0 0 108.54 60.69"><path d="M523.42,272.58c-16.82,0-31-13.88-31-30.31a1.25,1.25,0,0,1,1.25-1.25h23a1.25,1.25,0,0,1,0,2.5H494.92c.7,14.52,13.47,26.56,28.5,26.56,18.34,0,43-23.08,47.83-27.83-4.78-4.93-29.31-29-50.61-27.51a1.25,1.25,0,0,1-.17-2.5c10.46-.73,22.65,4,36.23,14a133.92,133.92,0,0,1,17.22,15.2,1.24,1.24,0,0,1,0,1.72,164.12,164.12,0,0,1-17,14.65C543.7,267.61,532.45,272.58,523.42,272.58Z" transform="translate(-465.71 -211.9)"/><path d="M516.53,272.58c-9.77,0-21.25-5-34.13-14.78A140.63,140.63,0,0,1,466,243.12a1.25,1.25,0,0,1,0-1.67,131.16,131.16,0,0,1,16.37-15.32c12.9-10.11,24.43-14.87,34.23-14.17,15.57,1.14,31.67,12.78,31.67,30.31C548.29,258.7,533.75,272.58,516.53,272.58Zm-47.87-30.33c4.54,4.69,27.94,27.83,47.87,27.83,15.86,0,29.26-12.73,29.26-27.81,0-16.07-14.92-26.76-29.35-27.81C496.56,213,473.14,237.36,468.66,242.25Z" transform="translate(-465.71 -211.9)"/></svg>